<svg xmlns="http://www.w3.org/2000/svg" width="246" height="276.699" viewBox="0 0 246 276.699">
  <g id="confidence-img" transform="translate(0.065 0.002)">
    <path id="パス_920" data-name="パス 920" d="M575.142,1059.892c-.377-2.074,1.878-8.181,1.878-11.235,0-18.43,19.344-21.882,30.194-11.032,3,3.01,10.879,12.1,7.877,16.935a5.077,5.077,0,0,1-1.168,1.3v.406a6.085,6.085,0,0,1-.921,2.495c-.914,1.842-.493,2.372-2.176,3.445-.21,1.61-.609,3.271-.609,4.432,0,2.219-.522,4.04-.522,6.3,0,1.284-1.661,1.233-3.155.653-.152-.058-.341-.116-.544-.174a13.715,13.715,0,0,0-.965,1.951c-.725,1.937-.16,1.676-2.176,1.451-1.451-.167-.123,2.234-1.378,2.234-2.785,0-2.176,1.973-3.808,3.409-1.269,1.124-2.974.065-4.729.065a17.26,17.26,0,0,1-4.881-1.451c2.35,5.962,12.562,7.5,12.562,16.928,0,1.762.181,3.626.377,5.621,1.567,4.134,2.517,8.413,1.327,10.785-1.451,2.9,1.842,7.935,1.842,11.423,0,1.538,1.284,1.625,1.451,3.677.3,3.858.45,3.4,2.227,6.955.508,1,.464,1.654.109,2.052l4.49,7.79c4.141,7.188.863,3.626,8.928,4.468,3.786.392,7.884,14.557,5.251,18.771-.936,1.487-10.241-4.12-10.241-6.172,0-1.69-7.884-2.1-9.98-3.416-6.208-3.88-8.7-6.02-11.416-12.99-.247-.638-.907-2.031-1.617-3.677-2.589,1.066-5.077,1.052-5.476-1.7-.392-3.017-4.083-6.593-4.591-11.032-.457-3.989-2.829-8.051-4.591-12.192a48.738,48.738,0,0,1-5.911,4.453c-2.713,1.53-4.751,3.8-7.485,5.8-1.53,1.1-3,2.176-4.468,3.2-1.929,4.729-3.975,8.747-10.364,11.6-.725.334-1.675.841-2.72,1.451a36.41,36.41,0,0,0-1.088,5.389c-.595,6.346-1.03,4.83-3.017,8.8a13.055,13.055,0,0,1-5.969,5.665,24.915,24.915,0,0,1-1.378,2.6c-.928,1.545-4.091,0-.921,3.148.885.892-3.793.276-1.451,2.626,1.247,1.247,1.683,1.313,0,2.364-.725.442-.972,3.721-.856,6.47,2.256,5.454,5.316,11.039,7.42,16.5,6.709,17.407,1.908,19.634-10.763,29.933-1.081.878-2.422,2.052-3.917,3.235-2.9,4.1-6.346,8.239-7.717,9.929-1.588,1.958-1.951,7.528-3.677,8.935-7.935,6.441-17.363,23.13-23.644,27.053-.537.334-2.256,1.255-4.569,2.4,1.784.08,3.953-.283,4.141-.225.725.21.3,1.806.131,2.357-.254.841-2.292.682-3.83,1.073a3.63,3.63,0,0,0,.421.638c2.713,3.336-1.762,4.859,1.835,8.921,4.91,5.556,8.979,13.657-3.547,12.214-5.984-.725-9.661-5.708-15.231-6.433-10.1-1.32-11.489-11.249-4.352-17.066a47.613,47.613,0,0,1,5.034-3.445c5.926-7.427,13.36-14.963,15.383-23.934-3.75,2.633-7.978,6.165-9,8.218-3.866,7.732-16.13,10.444-23.63,16.537a17.52,17.52,0,0,1-3.133,1.69c-2.256,3.445-4.78,2.553-2.64,8.486,1.451,4.054,21.3,9.429,16.87,11.88-5.585,3.039-16.682-.493-24.29-.2-4.352.174-15.681-1.2-19.032-3.213-3.771-2.263.218-14.992.921-18.379.413-2.016,1.269-1.451,2.125-.588a14.682,14.682,0,0,1,7.13-5.077c8.885-2.662,16.363-13.606,24.551-19.721a40.886,40.886,0,0,1,9.429-11.394,128.028,128.028,0,0,1,20.09-13.512,54.568,54.568,0,0,1,1.451-8.8c1.327-3.46,3.017-14.839,3.191-23.064-1.748-1.088-3.452-2.263-4.112-3.322-2.053-3.278,1.451-7.978,4.112-12.265a17.905,17.905,0,0,0-.725-4.279,42.068,42.068,0,0,1-2.64-14.056,10.11,10.11,0,0,1-.769-3.01,96.89,96.89,0,0,1,2.539-20.011c-.6-.45-1.226-.957-1.886-1.516-4.8-4.091,11.764-12.656,11.945-15.485.254-3.9,8.051-10.016,10.372-12.33,1.066-1.066,5.012-3.88,8.486-6.644a27.741,27.741,0,0,1,3.59-6.876c1.538-1.886,4.192-5.142,4.99-7.347,1.008-2.8,2.27-5.273,3.474-7.978-3.315-3.844-5.8-7.449-8.769-10.524h-.878c-1.588,0-6.528.283-8.268-.4-4.562-1.755-6.825,1.973-6.825-4.069V1065.5c-1.581-.8-2.9-1.937-4.577-2.132a5.557,5.557,0,0,1-2.858-1.117c-4.91,1.784-11.895,4.432-15.231,7.021A115.832,115.832,0,0,1,463,1080.729c-.529.725-1.044,1.451-1.538,2.06a39.306,39.306,0,0,1-7.021,7.209c-1.356,2.089-3.155,3.953-5.186,3.692-.675-.094-1.6-.29-2.575-.493-3.112.624-8.276,7.144-10.154,3.626-2.248-4.185-1.153,2.176-3.409-1.451-1.306-2.082-3.162-3.684-2.495-5.911,1.153-3.851,7.84-13.258,15.231-13.258,3.5,0,6.368-2.06,9.023-3.293,3.075-2.9,6.194-5.621,8.827-8.254,5-5,25.088-18.219,30.716-17.588a.42.42,0,0,0,0,.138,189.468,189.468,0,0,1,22.861,2.089c3.278.428,12.954,4.025,14.97,6.042a4.572,4.572,0,0,0,.377.334l.145-.073c2.292-1.146,7.137-.834,11.851.116,2.56-.486,4.664-.544,6.876,1.878a13.044,13.044,0,0,1,4.5,2.335,8.216,8.216,0,0,0,2.053,1.168,6.659,6.659,0,0,0,2.611.725,10.892,10.892,0,0,1,3.547.588,3.721,3.721,0,0,1,1.4,1.342,30.317,30.317,0,0,0,4.743.972,26.047,26.047,0,0,0,4.787-4.83Z" transform="translate(-419.81 -1031.49)" fill="#fff" fill-rule="evenodd"/>
    <path id="パス_921" data-name="パス 921" d="M722.948,1356.55a20.468,20.468,0,1,1-20.468,20.468,20.468,20.468,0,0,1,20.468-20.468Z" transform="translate(-497.48 -1120.788)" fill="#fff" fill-rule="evenodd"/>
  </g>
</svg>
