<svg xmlns="http://www.w3.org/2000/svg" width="319" height="206" viewBox="0 0 319 206">
  <g id="field-img" transform="translate(-28 -210)">
    <g id="長方形_18" data-name="長方形 18" transform="translate(28 210)" fill="#619945" stroke="#fff" stroke-width="3">
      <rect width="319" height="206" rx="7" stroke="none"/>
      <rect x="1.5" y="1.5" width="316" height="203" rx="5.5" fill="none"/>
    </g>
    <g id="長方形_19" data-name="長方形 19" transform="translate(127 380)" fill="none" stroke="#fff" stroke-width="3">
      <rect width="121" height="36" stroke="none"/>
      <rect x="1.5" y="1.5" width="118" height="33" fill="none"/>
    </g>
    <g id="長方形_20" data-name="長方形 20" transform="translate(98 334)" fill="none" stroke="#fff" stroke-width="3">
      <rect width="180" height="82" stroke="none"/>
      <rect x="1.5" y="1.5" width="177" height="79" fill="none"/>
    </g>
    <g id="前面オブジェクトで型抜き_2" data-name="前面オブジェクトで型抜き 2" transform="translate(3659 5080)" fill="none">
      <path d="M-3471.5-4827a42.239,42.239,0,0,1-16.434-3.294,42.351,42.351,0,0,1-13.453-8.991,42.372,42.372,0,0,1-9.134-13.348A42.214,42.214,0,0,1-3514-4869H-3429a42.213,42.213,0,0,1-3.476,16.367,42.372,42.372,0,0,1-9.134,13.348,42.352,42.352,0,0,1-13.453,8.991A42.232,42.232,0,0,1-3471.5-4827Z" stroke="none"/>
      <path d="M -3471.49951171875 -4830 C -3466.203857421875 -4830 -3461.065673828125 -4831.02978515625 -3456.22705078125 -4833.060546875 C -3451.552734375 -4835.0224609375 -3447.345947265625 -4837.833984375 -3443.72314453125 -4841.41796875 C -3440.102783203125 -4844.9990234375 -3437.246337890625 -4849.17333984375 -3435.23291015625 -4853.82470703125 C -3433.55224609375 -4857.70703125 -3432.520263671875 -4861.79052734375 -3432.152587890625 -4866 L -3510.847900390625 -4866 C -3510.480224609375 -4861.79052734375 -3509.4482421875 -4857.70703125 -3507.767333984375 -4853.82470703125 C -3505.75390625 -4849.17333984375 -3502.8974609375 -4844.9990234375 -3499.27685546875 -4841.41796875 C -3495.654296875 -4837.833984375 -3491.447265625 -4835.0224609375 -3486.77294921875 -4833.060546875 C -3481.933837890625 -4831.02978515625 -3476.795166015625 -4830 -3471.49951171875 -4830 M -3471.49951171875 -4827 C -3477.196044921875 -4827 -3482.725341796875 -4828.1083984375 -3487.933837890625 -4830.29443359375 C -3492.9638671875 -4832.4052734375 -3497.489990234375 -4835.43017578125 -3501.38671875 -4839.28515625 C -3505.281005859375 -4843.13720703125 -3508.35400390625 -4847.6279296875 -3510.5205078125 -4852.6328125 C -3512.761474609375 -4857.8095703125 -3513.93115234375 -4863.31640625 -3513.9970703125 -4869 L -3429.00341796875 -4869 C -3429.0693359375 -4863.31494140625 -3430.2392578125 -4857.80859375 -3432.479736328125 -4852.6328125 C -3434.646240234375 -4847.6279296875 -3437.71923828125 -4843.13720703125 -3441.613525390625 -4839.28515625 C -3445.51025390625 -4835.43017578125 -3450.036376953125 -4832.4052734375 -3455.066162109375 -4830.29443359375 C -3460.274169921875 -4828.1083984375 -3465.802978515625 -4827 -3471.49951171875 -4827 Z" stroke="none" fill="#fff"/>
    </g>
  </g>
</svg>
