<svg xmlns="http://www.w3.org/2000/svg" width="168.585" height="283.263" viewBox="0 0 168.585 283.263">
  <g id="foot-img" transform="translate(0 0)">
    <path id="パス_799" data-name="パス 799" d="M75.163-1279.674c-3.255.842-7.064,2.635-8.082,3.786-.93,1.041-3.277,5.912-4.185,8.614a11.355,11.355,0,0,0-.686,4.872c0,4.207.31,6.466,1.107,8.016a10.5,10.5,0,0,1,.886,2.923,10.786,10.786,0,0,0,1.882,5.093,63.751,63.751,0,0,1,3.654,8.016,3.857,3.857,0,0,1-1.174.709,34.717,34.717,0,0,0-5.912,3.676c-.908.687-2.325,1.683-3.144,2.192a13.45,13.45,0,0,0-5,5.979l-1.262,2.524v5.58l1.329,3.1,1.329,3.1-.022,7.086c0,5.824-.066,7.462-.4,9.19-.731,3.942-.775,4.982-.8,18.933-.022,16.364-.244,23.362-.775,25.133a89.5,89.5,0,0,1-3.787,9.256l-1.218,2.5.576.686c.974,1.151,1.218,1.86,1.683,4.982a17.685,17.685,0,0,0,.775,3.565,10.864,10.864,0,0,0,3.9,2.5,9.554,9.554,0,0,0,2.237.155c1.306-.066,1.373-.089,1.439-.664.089-.664-.62-1.284-1.461-1.284a5.085,5.085,0,0,1-2.591-1.284l-.664-.554,3.477.111,3.477.133.554-.62a3.685,3.685,0,0,1,1.329-.886c1.373-.443,1.218-1.572-.288-2.214-.753-.31-1.129-1.041-1.129-2.214,0-.842.044-.886,1.284-1.484.731-.354,1.284-.8,1.329-1.019.044-.244-.244-.687-.709-1.129-.8-.709-.8-.731-.354-1.129.6-.554.554-.886-.2-1.417-.554-.4-.642-.62-.775-2.148-.089-.952-.31-2.458-.509-3.388a21.92,21.92,0,0,1-.2-5.669,44.434,44.434,0,0,1,2.237-13.84,140.371,140.371,0,0,0,4.34-19.221c.709-4.3,1.218-6.267,1.683-6.422.332-.089,1.572,2.347,2.458,4.827a37.468,37.468,0,0,1,1.705,8.193c.2,1.528.487,3.366.664,4.1.509,2.148.731,4.539,1,10.651.509,12.268.642,14.859.908,16.01.266,1.085.266,1.2-.155,1.417a7.932,7.932,0,0,0-1.151.952c-.642.642-.709.841-.709,2.037,0,1.284-.022,1.351-.886,2.037-1.107.886-1.129,1.306-.111,3.321l.775,1.55-1.174,1.727c-1.9,2.724-2.17,3.853-1.594,6.6.111.509-.266,1.86-1.617,5.868-.974,2.856-2.1,6.023-2.48,7.064a8.088,8.088,0,0,0-.266,5.979c.62,2.17.841,3.809,1.373,10.673.244,3.122.6,6.245.775,6.909a14.914,14.914,0,0,0,1.329,2.967c.531.93,2.237,4.318,3.742,7.507,1.506,3.211,3.1,6.444,3.521,7.2,1.506,2.7,11.05,12.29,16.763,16.851,2.547,2.037,3.056,2.613,4.318,4.916.465.841,1.4,2.48,2.059,3.609l1.218,2.081-.376.753c-.421.908-.443,1.329-.089,2.967.244,1.218.244,1.284-.376,2.059-.576.8-.6.819-.133.819.244,0,.465.133.465.288a4.272,4.272,0,0,0,.8,1.329,4.127,4.127,0,0,1,.974,2.524,20.383,20.383,0,0,0,1.528,5.093c.177.31.221.044.244-1.085a3.785,3.785,0,0,1,.2-1.594c.288-.177,1.151,2.569,2.325,7.329.554,2.192,1.306,4.761,1.683,5.691,1.882,4.539,4.717,7.064,7.042,6.311a11.432,11.432,0,0,0,3.964-2.436,6.2,6.2,0,0,1,1.926-1.24c.6-.133.62-.177.487-1.085-.155-1.152.2-2.237.775-2.414a1.42,1.42,0,0,0,.686-.664c.177-.421.133-.664-.221-1.262a7.033,7.033,0,0,1-.686-2.5c-.244-2.015-.354-2.347-2.192-6.754a28.426,28.426,0,0,1-2.392-8.149c-.133-1.484-.111-1.572.376-1.838a2.033,2.033,0,0,0,.686-.509,2.085,2.085,0,0,0-.266-2.059,2.332,2.332,0,0,1,.221-3.056,2.454,2.454,0,0,0,.664-.819,5.748,5.748,0,0,0-.664-1.107,6.069,6.069,0,0,1-.908-1.816c-.664-2.458-3.012-4.362-7.795-6.333a5.071,5.071,0,0,1-2.237-1.417c-.531-.709-5.314-9.81-8.082-15.368a58.291,58.291,0,0,1-2.569-6.112,46.64,46.64,0,0,0-1.993-5.027,74.255,74.255,0,0,0-4.407-7.374,8.988,8.988,0,0,1-1.129-2.082c.044-.066.443.2.864.554a11.841,11.841,0,0,0,4.163,2.082,3.312,3.312,0,0,0,3.366-.8l.886-.775-.487-2.059a8.622,8.622,0,0,1-.022-5.492c.509-1.86.576-1.971,2.524-3.388.731-.531,2.613-2.126,4.185-3.543,2.879-2.613,3.543-3.012,4.407-2.635.664.31,5.757,5.2,9.9,9.522,1.882,1.971,4.65,4.672,6.134,6a30.939,30.939,0,0,1,5.469,5.912c1.572,2.148,2.7,3.366,3.5,3.787a7.365,7.365,0,0,1,1.661,2.1c.576.974,2.392,3.5,4.03,5.58a76.449,76.449,0,0,1,6.466,9.256c.753,1.262,1.86,2.923,2.436,3.676.6.753,1.417,1.9,1.838,2.547a12.351,12.351,0,0,0,3.853,3.7,13.168,13.168,0,0,1,5.027,6.289c1.528,3.543,2.414,5.049,8.437,14.239,7.285,11.116,7.64,11.825,8.392,16.586a14.852,14.852,0,0,0,2.657,7.152,8.616,8.616,0,0,1,.886,1.971,68.137,68.137,0,0,0,2.967,6.355,38.213,38.213,0,0,1,2.9,6.444c.62,2.879.576,2.879,10.23,2.834,8.858-.022,8.7,0,8.7-1.86,0-1.55-1.041-3.72-4.517-9.588-1.373-2.281-2.458-4.207-2.414-4.252a2.6,2.6,0,0,1,.908.177c.62.2.886.2,1.085,0,.376-.376-.133-.886-1.2-1.2-.775-.221-2.392-1.705-2.392-2.17a4.69,4.69,0,0,0-1.107-.864,16.754,16.754,0,0,1-4.407-5.137c-.421-.775-1.019-1.816-1.351-2.3a21.578,21.578,0,0,1-3.322-9.433c-.421-4.163-2.414-11.05-5.226-18.18a53.153,53.153,0,0,0-5.226-10.474c-1.151-1.838-2.436-3.964-2.834-4.761a16.894,16.894,0,0,0-2.812-3.543c-3.964-4.1-4.407-4.606-5.8-6.975-3.942-6.621-6.156-12.467-5.049-13.331a3.555,3.555,0,0,1,1.373-.354,24.908,24.908,0,0,0,6.71-2.281c1.727-.841,2.037-1.063,2.037-1.506,0-.864-1.528-4.229-3.056-6.754-.775-1.284-2.392-4.252-3.587-6.555a77.456,77.456,0,0,0-5.027-8.857c-.841-1.351-1.882-3.034-2.281-3.764a10.931,10.931,0,0,0-4.562-4.451l-2.015-1.174-.133-2.347c-.177-2.7-.465-3.41-1.705-4.229a3.937,3.937,0,0,0-3.676-.443,3.69,3.69,0,0,1-1.107.288c-.111-.133-.775-4.739-.974-6.909a77.5,77.5,0,0,0-6.067-21.546c-1.506-3.41-4.473-11.426-5.624-15.213a52.719,52.719,0,0,1-1.927-8.415c-.2-1.351-.6-3.587-.908-4.982-1.085-5.071-1.882-9.012-2.17-10.806-.354-2.214-.244-2.325,1.329-1.528a36.93,36.93,0,0,0,6.842,2.259c2.037.443,4.5,1.063,7.2,1.794,3.322.908,6.466.576,7.617-.819.487-.576.576-.886.576-2.17a17.348,17.348,0,0,0-1.151-6.2,42.254,42.254,0,0,0-4.163-5.447,27.762,27.762,0,0,1-2.524-3.255c-1.484-2.259-3.41-4.1-7-6.643-3.144-2.236-3.454-2.5-4.141-3.587a49.335,49.335,0,0,0-6.333-6.51,20,20,0,0,1-2.657-2.679,16.2,16.2,0,0,0-4.473-4.252,21.346,21.346,0,0,0-2.989-.775,29.214,29.214,0,0,1-3.831-1,9.107,9.107,0,0,0-4.207-.642c-1.373,0-3.521.111-4.805.244-2.015.221-2.436.2-3.189-.111a4.838,4.838,0,0,0-1.572-.354c-2.059,0-3.764-5.27-2.679-8.348.864-2.48,1.019-8.813.266-12.245a21.143,21.143,0,0,0-4.584-8.614,19.277,19.277,0,0,0-7.551-4.362A32.072,32.072,0,0,0,75.163-1279.674Z" transform="translate(-38.112 1279.752)" fill="#fff"/>
    <path id="パス_800" data-name="パス 800" d="M15.862-182.349a22.356,22.356,0,0,0-6.488,2.834c-4.539,3.012-8.282,8.747-9.035,13.8a27.12,27.12,0,0,0,.354,8.149,21.053,21.053,0,0,0,14.947,14.9,35.448,35.448,0,0,0,9.19,0,21.682,21.682,0,0,0,9.234-4.872A21.409,21.409,0,0,0,40.6-163.771,16.92,16.92,0,0,0,39-170.214a18.141,18.141,0,0,0-4.65-6.71c-2.17-2.192-2.679-2.569-4.539-3.5a21.593,21.593,0,0,0-9.411-2.259A14.407,14.407,0,0,0,15.862-182.349Z" transform="translate(-0.18 425.632)" fill="#fff"/>
  </g>
</svg>
