<svg xmlns="http://www.w3.org/2000/svg" width="79.777" height="225.62" viewBox="0 0 79.777 225.62">
  <g id="height-img" transform="translate(-114.646 -11.508)">
    <path id="パス_159" data-name="パス 159" d="M841.621,473.6a4.984,4.984,0,0,1,1.352-7.522l-3.263-17.409,8.486,3.565,1.8,15.986a5.011,5.011,0,0,1-8.373,5.381Z" transform="translate(-671.367 -338.474)" fill="#fff"/>
    <path id="パス_160" data-name="パス 160" d="M634.8,474.037h-6.077L625.834,450.6H634.8Z" transform="translate(-474.472 -243.197)" fill="#fff"/>
    <path id="パス_161" data-name="パス 161" d="M798.206,516.3s3.7-22.639,7.166-28.587,2.36-19.992,2.36-19.992l-3.383-.281a4.722,4.722,0,0,0-.22-1.671c-1.731-4.822-25.852-3.11-25.852-3.11s-9.016,14.157-5.83,26.793S779.1,526.37,779.1,526.37l10.432,39.744,8.922-.5-.949-22.468.253.082Z" transform="translate(-637.099 -345.379)" fill="#fff"/>
    <path id="パス_162" data-name="パス 162" d="M814.906,324.873l-9.035-10.516-14.5-.421-5.546,8.917-1.376,9.794L777.4,390.909s23.08,11.063,35.5,5.722l5.974-49.95C821.349,336.769,814.906,324.873,814.906,324.873Z" transform="translate(-639.941 -270.523)" fill="#fff"/>
    <circle id="楕円形_7" data-name="楕円形 7" cx="12.575" cy="12.575" r="12.575" transform="translate(146.79 14.965)" fill="#fff"/>
    <path id="パス_163" data-name="パス 163" d="M823.266,262.738a7.594,7.594,0,0,0-4.915-6.218,10.632,10.632,0,0,0-6.946-6.31,13.568,13.568,0,0,0-15.6,5.689c-.237.372-.964,1.286-.943,1.73.026.564.888,1.146,1.321,1.5a19.364,19.364,0,0,0,3.455,2.132c4.522,2.344,3.016,6.029,2.955,10.2a5.439,5.439,0,0,0,2.378,4.92c2.5,1.672,6.07,1.007,8.786.336,3.083-.762,5.645-3.47,7.4-6.081A11.554,11.554,0,0,0,823.266,262.738Z" transform="translate(-648.749 -238.06)" fill="#fff"/>
    <path id="パス_164" data-name="パス 164" d="M661.708,174.846l4.893,53.672-15.72-.843Z" transform="translate(-487.104 -104.125)" fill="#fff"/>
    <path id="パス_165" data-name="パス 165" d="M738,454.1a4.692,4.692,0,0,0,2.033-6.9l10.087-13.278-8.646-.577-8.254,12.7A4.718,4.718,0,0,0,738,454.1Z" transform="translate(-616.729 -328.359)" fill="#fff"/>
    <path id="e1bf2fad-858c-4bea-9733-320cc40b59f5" d="M770.615,330.6l-1.678-.652-1.62.573s-5.067,4.829-5.915,9.891c-.38,2.265-6.284,24.414-6.284,24.414l-15.73,24.124,8.511,5.684,21.693-32.5Z" transform="translate(-620.769 -278.599)" fill="#fff"/>
    <path id="パス_166" data-name="パス 166" d="M805.62,685.648h-1.752l-6.842-2.782-3.667,2.782h0a7.814,7.814,0,0,0-7.814,7.813v.254H805.62Z" transform="translate(-644.049 -456.588)" fill="#fff"/>
    <path id="パス_167" data-name="パス 167" d="M679.334,434.877l-4.306,4.288L656.439,424.6l6.354-6.329Z" transform="translate(-489.907 -226.893)" fill="#fff"/>
    <path id="パス_168" data-name="パス 168" d="M870.294,640.759l-1.033,1.416-6.281,3.886.085,4.6h0a7.814,7.814,0,0,0,1.7,10.918l.2.15,11.836-16.215Z" transform="translate(-682.387 -435.352)" fill="#fff"/>
    <path id="パス_169" data-name="パス 169" d="M635.086,379.5l28.253,29.244-7.931,6.939-22.2-17.44Z" transform="translate(-478.19 -207.34)" fill="#fff"/>
  </g>
</svg>
