<svg id="off-img" xmlns="http://www.w3.org/2000/svg" width="40.432" height="59.801" viewBox="0 0 40.432 59.801">
  <path id="パス_121" data-name="パス 121" d="M353.03,211.249a14.726,14.726,0,0,1-4.477,10.987c-2.082,1.991-5.29,4.782-5.29,7.732v2.441H333.5v-2.441c0-2.981-3.22-5.778-5.29-7.732a15.076,15.076,0,0,1-4.477-10.987v-.09a14.65,14.65,0,0,1,29.3.09Z" transform="translate(-317.757 -181.176)" fill="#cfcfcf"/>
  <path id="Path_2546" data-name="Path 2546" d="M340.614,230.449a.343.343,0,0,1-.343-.343v-2.442c0-2.87,2.831-5.549,4.9-7.506.171-.162.338-.32.5-.473a14.448,14.448,0,0,0,4.37-10.739,14.155,14.155,0,0,0-14.307-14.307h-.04a14.282,14.282,0,0,0-14.266,14.226v.08a14.725,14.725,0,0,0,4.369,10.739l.437.41c2.094,1.96,4.961,4.644,4.961,7.571v2.441a.343.343,0,0,1-.685,0v-2.442c0-2.629-2.742-5.2-4.744-7.071l-.439-.412a15.411,15.411,0,0,1-4.584-11.236v-.082a14.969,14.969,0,0,1,14.951-14.91h.042a14.914,14.914,0,0,1,14.991,14.836q0,.078,0,.157a15.118,15.118,0,0,1-4.582,11.235c-.161.154-.329.313-.5.476-1.976,1.871-4.683,4.433-4.683,7.008v2.442a.343.343,0,0,1-.343.343Z" transform="translate(-315.108 -178.872)" fill="#3f3d56"/>
  <path id="Path_2547" data-name="Path 2547" d="M425.563,543.078h-6.511a.571.571,0,1,1,0-1.142h6.511a.571.571,0,0,1,0,1.142Z" transform="translate(-401.685 -487.104)" fill="#cfcfcf"/>
  <path id="パス_122" data-name="パス 122" d="M435.3,577.723h-1.4a2.678,2.678,0,0,1-1.382-.383.319.319,0,0,1-.145-.367.33.33,0,0,1,.32-.245h3.814a.33.33,0,0,1,.32.245.319.319,0,0,1-.145.367A2.678,2.678,0,0,1,435.3,577.723Z" transform="translate(-413.981 -517.922)" fill="#3f3d56"/>
  <path id="パス_123" data-name="パス 123" d="M429.428,562.154h-6.55l-.02-.044a.54.54,0,0,1,.1-.464.555.555,0,0,1,.437-.211h5.547a.555.555,0,0,1,.437.211.537.537,0,0,1,.1.458l-.01.044Z" transform="translate(-405.548 -504.376)" fill="#3f3d56"/>
  <path id="Path_2548" data-name="Path 2548" d="M276.92,165.285a.569.569,0,0,1-.375-.141l-4.9-4.282a.571.571,0,0,1,.751-.861l4.9,4.282a.571.571,0,0,1-.376,1Z" transform="translate(-271.444 -148.675)" fill="#e4e4e4"/>
  <path id="Path_2549" data-name="Path 2549" d="M573.028,165.282a.571.571,0,0,1-.376-1l4.9-4.282a.571.571,0,0,1,.751.861L573.4,165.14A.569.569,0,0,1,573.028,165.282Z" transform="translate(-538.072 -148.671)" fill="#e4e4e4"/>
  <path id="Path_2550" data-name="Path 2550" d="M414.567,525.332H404.8a.571.571,0,0,1,0-1.142h9.767a.571.571,0,0,1,0,1.142Z" transform="translate(-389.061 -471.385)" fill="#cfcfcf"/>
  <path id="パス_124" data-name="パス 124" d="M425.141,398.412l-2.031,12.208H421.95l2.063-12.4a.571.571,0,1,1,1.127.187Z" transform="translate(-404.757 -359.386)" fill="#e6e6e6"/>
  <path id="パス_125" data-name="パス 125" d="M459.25,410.62H458.09l-2.031-12.208a.571.571,0,0,1,1.127-.187Z" transform="translate(-434.964 -359.386)" fill="#e6e6e6"/>
  <path id="Path_2551" data-name="Path 2551" d="M419.485,395.571a.571.571,0,0,1,.571-.571h6.282a.571.571,0,0,1,0,1.142h-6.282A.571.571,0,0,1,419.485,395.571Z" transform="translate(-402.574 -356.953)" fill="#e6e6e6"/>
  <path id="Path_2553" data-name="Path 2553" d="M447.552,72.84a.571.571,0,0,1-.571-.571V62.5a.571.571,0,0,1,1.142,0v9.767A.571.571,0,0,1,447.552,72.84Z" transform="translate(-426.929 -61.931)" fill="#e4e4e4"/>
</svg>
