<svg xmlns="http://www.w3.org/2000/svg" width="19.74" height="30.856" viewBox="0 0 19.74 30.856">
  <g id="question1-japan-img-after" transform="translate(-153 -350.58)">
    <g id="_1531648" data-name="1531648" transform="translate(152.403 1630.615)">
      <path id="パス_922" data-name="パス 922" d="M9.706-1280.009a10.387,10.387,0,0,0-3.274.8,9.635,9.635,0,0,0-5.619,6.626,8.1,8.1,0,0,0-.217,2.062A8.551,8.551,0,0,0,1.1-1267.5a14.032,14.032,0,0,0,1.061,2.427c.145.248,1.818,2.722,2.5,3.707.511.732,1.533,2.271,1.9,2.866a23.426,23.426,0,0,1,2.36,5.07,17.71,17.71,0,0,1,.615,2.96,2.053,2.053,0,0,0,.2.819.718.718,0,0,0,1.159.274,1.416,1.416,0,0,0,.412-1.041,18.376,18.376,0,0,1,.783-3.524,24.879,24.879,0,0,1,2.271-4.671c.627-.989,1.967-2.978,2.575-3.826a27.321,27.321,0,0,0,2.218-3.58,9.648,9.648,0,0,0,1.126-3.508,13.041,13.041,0,0,0,.012-1.939,9.241,9.241,0,0,0-1.507-4.183,9.892,9.892,0,0,0-4.3-3.563A10.415,10.415,0,0,0,9.706-1280.009Z" transform="translate(0 0.001)" fill="#ff046e"/>
    </g>
    <circle id="楕円形_561" data-name="楕円形 561" cx="3" cy="3" r="3" transform="translate(160 357)" fill="#fff"/>
  </g>
</svg>
