<svg id="レイヤー_1" data-name="レイヤー 1" xmlns="http://www.w3.org/2000/svg" viewBox="0 0 745.59 745.63"><defs><style>.cls-1{fill:#fff;}</style></defs><path class="cls-1" d="M416.79,631.17a12,12,0,0,0-6.33,1.1c-4.47,2-4.91,5.55-3.85,7.88,1.44,3.16,4.12,3.88,9.25,3.73,6.19-.17,10.07,1.28,12.17,5.88,2.33,5.11.4,10.73-6.52,13.88a16.27,16.27,0,0,1-8.61,1.48l-.36-3.35a14.38,14.38,0,0,0,7.83-1.18c4.31-2,5.78-5.44,4.2-8.9-1.44-3.17-4.06-4.32-9-4.1-5.68.4-10.26-.93-12.29-5.36-2.23-4.9.1-10.3,6-13a14.37,14.37,0,0,1,7.28-1.49Z" transform="translate(-189.7 -596.35)"/><path class="cls-1" d="M457.52,629.69c4.18,11.72-.32,19.83-8.18,22.63-8.26,2.95-16.44-1.47-20.16-11.88-3.86-10.84-.05-19.64,8.29-22.61C446,614.79,453.94,619.64,457.52,629.69ZM433,639c2.52,7.08,8.66,12.68,15.43,10.26s8.11-10.43,5.39-18c-2.38-6.68-8.28-12.86-15.4-10.32C431,623.52,430.43,631.92,433,639Z" transform="translate(-189.7 -596.35)"/><path class="cls-1" d="M486.48,640.69l-17.85,4.72-9-34.18,3.73-1,8.19,31,14.13-3.73Z" transform="translate(-189.7 -596.35)"/><path class="cls-1" d="M505.17,604.42l-10.26,2,6,31.5-3.78.72-6-31.5L480.92,609l-.61-3.19,24.25-4.62Z" transform="translate(-189.7 -596.35)"/><path class="cls-1" d="M509.8,600.6l3.82-.52,4.78,35-3.82.52Z" transform="translate(-189.7 -596.35)"/><path class="cls-1" d="M544.25,632.58l-18.4,1.56-3-35.23,3.84-.32,2.71,31.94L544,629.3Z" transform="translate(-189.7 -596.35)"/><path class="cls-1" d="M576.55,614c.2,12.43-6.66,18.67-15,18.8-8.77.15-15.1-6.66-15.27-17.71-.19-11.5,6.24-18.61,15.1-18.76C570.41,596.21,576.38,603.35,576.55,614ZM550.3,615c.12,7.51,4.14,14.78,11.33,14.66s11-7.28,10.89-15.35c-.12-7.1-3.72-14.84-11.29-14.71C553.44,599.68,550.18,607.44,550.3,615Z" transform="translate(-189.7 -596.35)"/><path class="cls-1" d="M592.57,633.49l4-35.14,17.71,2-.37,3.23L600,602l-1.4,12.5L611.36,616l-.36,3.18-12.77-1.44-1.83,16.23Z" transform="translate(-189.7 -596.35)"/><path class="cls-1" d="M638.88,639.62a21.72,21.72,0,0,1-9-.11c-8.94-1.71-15-8.87-12.78-20.63,2.14-11.22,10.45-16.86,20.62-14.91a17.45,17.45,0,0,1,7.38,2.88l-1.61,3a15.35,15.35,0,0,0-6.29-2.67c-7.89-1.51-14.28,2.75-16.11,12.32-1.74,9.12,2.15,15.44,10.27,17a17.59,17.59,0,0,0,7.24-.08Z" transform="translate(-189.7 -596.35)"/><path class="cls-1" d="M699.55,627.57a12,12,0,0,0-5.24-3.72c-4.6-1.74-7.41.43-8.31,2.82-1.23,3.25.14,5.66,3.87,9.2,4.48,4.27,6.19,8,4.4,12.77-2,5.26-7.33,7.85-14.45,5.16a16.24,16.24,0,0,1-7.12-5.07l2.13-2.62a14.43,14.43,0,0,0,6.35,4.73c4.43,1.68,7.94.27,9.28-3.29,1.23-3.25.21-5.92-3.43-9.28-4.29-3.76-6.58-7.95-4.86-12.5,1.91-5,7.38-7.19,13.42-4.91a14.49,14.49,0,0,1,6.18,4.12Z" transform="translate(-189.7 -596.35)"/><path class="cls-1" d="M729.3,655.46c-5.37,11.22-14.3,13.74-21.83,10.13-7.91-3.79-10.53-12.71-5.76-22.67,5-10.38,13.9-13.87,21.89-10C731.76,636.78,733.91,645.84,729.3,655.46Zm-23.91-10.88c-3.25,6.78-2.9,15.07,3.59,18.18s13.11-1.59,16.6-8.87c3.06-6.41,3.29-14.94-3.53-18.21C715,632.31,708.64,637.8,705.39,644.58Z" transform="translate(-189.7 -596.35)"/><path class="cls-1" d="M741.89,683.75,726,674.41l17.88-30.5,3.32,2-16.22,27.66,12.61,7.39Z" transform="translate(-189.7 -596.35)"/><path class="cls-1" d="M780.78,671.43l-8.61-5.9L754.06,692l-3.18-2.18L769,663.36l-8.58-5.87,1.83-2.68,20.38,13.94Z" transform="translate(-189.7 -596.35)"/><path class="cls-1" d="M786.76,672l3.06,2.34-21.47,28.1-3.06-2.34Z" transform="translate(-189.7 -596.35)"/><path class="cls-1" d="M788.39,719l-14.08-11.94,22.86-27,2.94,2.49L779.38,707l11.14,9.46Z" transform="translate(-189.7 -596.35)"/><path class="cls-1" d="M824.37,729.16c-8.8,8.78-18,8.18-24,2.27-6.19-6.2-5.69-15.49,2.12-23.29,8.15-8.13,17.73-8.45,24-2.17S831.92,721.62,824.37,729.16Zm-18.92-18.23c-5.32,5.31-7.75,13.25-2.67,18.34s12.89,2.87,18.6-2.84c5-5,8.09-13,2.74-18.33C818.62,702.58,810.77,705.62,805.45,710.93Z" transform="translate(-189.7 -596.35)"/><path class="cls-1" d="M821.79,753.91,849.52,732l11.05,14L858,748l-8.67-11-9.86,7.8,8,10.08-2.51,2-8-10.08-12.81,10.14Z" transform="translate(-189.7 -596.35)"/><path class="cls-1" d="M850.05,791.06a21.69,21.69,0,0,1-6.23-6.43c-5.09-7.54-4.3-16.91,5.63-23.6,9.46-6.38,19.32-4.46,25.1,4.12a17.57,17.57,0,0,1,3.16,7.26l-3.26,1a15.51,15.51,0,0,0-2.54-6.34c-4.49-6.66-12-8.19-20.09-2.74-7.7,5.18-9.43,12.4-4.82,19.25a17.64,17.64,0,0,0,5.16,5.08Z" transform="translate(-189.7 -596.35)"/><path class="cls-1" d="M901.4,825.61a12.09,12.09,0,0,0-1.06-6.33c-2-4.49-5.53-4.95-7.86-3.91-3.17,1.43-3.91,4.1-3.79,9.23.13,6.2-1.34,10.06-6,12.13-5.12,2.3-10.73.34-13.85-6.61a16.26,16.26,0,0,1-1.42-8.61l3.36-.34A14.35,14.35,0,0,0,872,829c1.94,4.31,5.41,5.81,8.88,4.25,3.17-1.42,4.34-4,4.16-9-.37-5.69,1-10.26,5.43-12.25,4.92-2.21,10.3.16,12.94,6.05a14.42,14.42,0,0,1,1.44,7.28Z" transform="translate(-189.7 -596.35)"/><path class="cls-1" d="M902.62,866.38c-11.74,4.1-19.82-.45-22.58-8.34-2.89-8.28,1.59-16.43,12-20.08,10.87-3.79,19.64.07,22.57,8.44C917.6,854.94,912.7,862.85,902.62,866.38Zm-9.15-24.63c-7.09,2.48-12.73,8.58-10.36,15.37s10.38,8.17,18,5.5c6.71-2.34,12.92-8.2,10.42-15.34C909,839.92,900.57,839.27,893.47,841.75Z" transform="translate(-189.7 -596.35)"/><path class="cls-1" d="M891.43,895.23l-4.61-17.88,34.24-8.82,1,3.73-31,8,3.64,14.15Z" transform="translate(-189.7 -596.35)"/><path class="cls-1" d="M927.6,914.15l-1.9-10.27-31.53,5.81-.7-3.79L925,900.09l-1.89-10.22,3.2-.59,4.47,24.28Z" transform="translate(-189.7 -596.35)"/><path class="cls-1" d="M931.37,918.82l.5,3.82-35.06,4.56-.5-3.82Z" transform="translate(-189.7 -596.35)"/><path class="cls-1" d="M899.18,953.08l-1.44-18.41L933,931.9l.3,3.84-32,2.51,1.15,14.57Z" transform="translate(-189.7 -596.35)"/><path class="cls-1" d="M917.15,985.88c-12.44-.2-18.45-7.26-18.31-15.61.14-8.77,7.15-14.88,18.19-14.7,11.51.19,18.41,6.84,18.27,15.71C935.15,980.32,927.82,986.05,917.15,985.88Zm-.09-26.27c-7.52-.12-14.91,3.66-15,10.85s6.91,11.25,15,11.38c7.1.11,15-3.24,15.08-10.8C932.22,963.24,924.58,959.73,917.06,959.61Z" transform="translate(-189.7 -596.35)"/><path class="cls-1" d="M898,1001.38l35.12,4.18-2.11,17.7-3.23-.39,1.66-13.87-12.49-1.49-1.52,12.77-3.18-.38,1.52-12.76-16.22-1.94Z" transform="translate(-189.7 -596.35)"/><path class="cls-1" d="M891.56,1047.63a21.76,21.76,0,0,1,.16-9c1.77-8.92,9-15,20.72-12.65,11.19,2.22,16.78,10.56,14.78,20.71a17.55,17.55,0,0,1-2.93,7.37l-3-1.63a15.37,15.37,0,0,0,2.71-6.28c1.56-7.87-2.66-14.29-12.22-16.18-9.11-1.8-15.45,2.06-17,10.16a17.68,17.68,0,0,0,0,7.24Z" transform="translate(-189.7 -596.35)"/><path class="cls-1" d="M903.21,1108.4a12.08,12.08,0,0,0,3.75-5.22c1.77-4.59-.38-7.4-2.76-8.32-3.25-1.25-5.66.1-9.22,3.8-4.31,4.46-8.09,6.14-12.81,4.32-5.23-2-7.79-7.38-5.06-14.48a16.25,16.25,0,0,1,5.12-7.08l2.6,2.15a14.38,14.38,0,0,0-4.77,6.31c-1.7,4.42-.32,7.93,3.23,9.3,3.25,1.25,5.92.25,9.31-3.37,3.78-4.27,8-6.52,12.52-4.77,5,1.93,7.14,7.42,4.82,13.44a14.31,14.31,0,0,1-4.16,6.15Z" transform="translate(-189.7 -596.35)"/><path class="cls-1" d="M875.14,1138c-11.18-5.44-13.64-14.38-10-21.89,3.83-7.88,12.77-10.45,22.7-5.61,10.35,5,13.78,14,9.9,22C893.8,1140.54,884.73,1142.63,875.14,1138Zm11-23.83c-6.76-3.29-15.06-3-18.21,3.47s1.51,13.12,8.77,16.65c6.38,3.11,14.91,3.39,18.23-3.41C898.38,1123.83,892.94,1117.41,886.18,1114.12Z" transform="translate(-189.7 -596.35)"/><path class="cls-1" d="M846.78,1150.36l9.44-15.87,30.4,18.07-2,3.31-27.56-16.39-7.48,12.57Z" transform="translate(-189.7 -596.35)"/><path class="cls-1" d="M858.85,1189.35l5.95-8.58-26.35-18.26,2.19-3.17L867,1177.61l5.92-8.54,2.67,1.85-14.06,20.28Z" transform="translate(-189.7 -596.35)"/><path class="cls-1" d="M858.23,1195.31l-2.36,3-28-21.64,2.35-3Z" transform="translate(-189.7 -596.35)"/><path class="cls-1" d="M811.23,1196.67l12-14,26.83,23-2.51,2.93-24.33-20.89-9.52,11.09Z" transform="translate(-189.7 -596.35)"/><path class="cls-1" d="M800.87,1232.57c-8.74-8.86-8.08-18.11-2.13-24,6.24-6.16,15.52-5.6,23.28,2.26,8.08,8.2,8.34,17.78,2,24S808.36,1240.17,800.87,1232.57Zm18.34-18.81c-5.28-5.35-13.2-7.84-18.33-2.78s-2.94,12.87,2.73,18.62c5,5.06,12.94,8.16,18.33,2.85C827.49,1227,824.49,1219.11,819.21,1213.76Z" transform="translate(-189.7 -596.35)"/><path class="cls-1" d="M776.12,1229.84l21.77,27.86-14,11-2-2.56,11-8.6-7.75-9.91L775,1255.52l-2-2.53,10.13-7.91-10.06-12.87Z" transform="translate(-189.7 -596.35)"/><path class="cls-1" d="M738.79,1257.87a21.62,21.62,0,0,1,6.46-6.19c7.57-5,16.94-4.19,23.57,5.78,6.32,9.5,4.34,19.34-4.27,25.07a17.55,17.55,0,0,1-7.29,3.12l-1-3.27a15.34,15.34,0,0,0,6.36-2.5c6.69-4.45,8.26-12,2.87-20.07-5.14-7.73-12.35-9.51-19.22-4.94a17.64,17.64,0,0,0-5.12,5.13Z" transform="translate(-189.7 -596.35)"/><path class="cls-1" d="M703.92,1309a11.9,11.9,0,0,0,6.34-1c4.5-2,5-5.49,4-7.83-1.4-3.18-4.07-3.93-9.2-3.85-6.2.1-10-1.4-12.09-6-2.27-5.13-.27-10.73,6.69-13.8a16.36,16.36,0,0,1,8.63-1.37l.31,3.36a14.41,14.41,0,0,0-7.84,1.08c-4.33,1.91-5.85,5.36-4.31,8.84,1.4,3.19,4,4.37,9,4.22,5.68-.33,10.25,1.06,12.21,5.51,2.18,4.93-.22,10.3-6.13,12.9a14.33,14.33,0,0,1-7.29,1.39Z" transform="translate(-189.7 -596.35)"/><path class="cls-1" d="M663.17,1310c-4-11.77.57-19.82,8.47-22.52,8.3-2.84,16.42,1.68,20,12.13,3.73,10.89-.19,19.64-8.58,22.51C674.5,1325,666.62,1320.05,663.17,1310Zm24.68-9c-2.44-7.11-8.5-12.79-15.3-10.46s-8.24,10.33-5.62,18c2.3,6.71,8.11,13,15.27,10.51C689.57,1316.46,690.28,1308.07,687.85,1301Z" transform="translate(-189.7 -596.35)"/><path class="cls-1" d="M634.37,1298.58l17.91-4.49,8.6,34.29-3.73.94-7.8-31.1-14.18,3.56Z" transform="translate(-189.7 -596.35)"/><path class="cls-1" d="M615.23,1334.62l10.28-1.82-5.61-31.57,3.79-.68,5.61,31.57,10.23-1.82.57,3.2-24.31,4.32Z" transform="translate(-189.7 -596.35)"/><path class="cls-1" d="M610.51,1338.39l-3.82.47-4.34-35.09,3.82-.48Z" transform="translate(-189.7 -596.35)"/><path class="cls-1" d="M576.47,1306l18.42-1.34,2.55,35.28-3.84.28-2.31-32-14.59,1Z" transform="translate(-189.7 -596.35)"/><path class="cls-1" d="M543.64,1323.83c.2-12.43,7.26-18.44,15.61-18.31,8.77.15,14.87,7.16,14.69,18.2-.18,11.51-6.84,18.41-15.7,18.26C549.19,1341.83,543.46,1334.5,543.64,1323.83Zm26.27-.08c.12-7.52-3.66-14.91-10.85-15s-11.25,6.92-11.38,15c-.12,7.1,3.24,15,10.8,15.07C566.27,1338.91,569.78,1331.26,569.91,1323.75Z" transform="translate(-189.7 -596.35)"/><path class="cls-1" d="M528.18,1304.47l-4.4,35.08-17.67-2.21.4-3.23,13.86,1.74,1.56-12.48-12.75-1.59.4-3.18,12.75,1.6,2-16.21Z" transform="translate(-189.7 -596.35)"/><path class="cls-1" d="M482,1297.76a21.85,21.85,0,0,1,9,.22c8.91,1.82,14.91,9.07,12.51,20.8-2.28,11.18-10.66,16.71-20.8,14.64a17.5,17.5,0,0,1-7.35-3l1.65-3a15.34,15.34,0,0,0,6.26,2.75c7.86,1.61,14.31-2.57,16.26-12.12,1.86-9.09-2-15.46-10.05-17.11a17.4,17.4,0,0,0-7.24,0Z" transform="translate(-189.7 -596.35)"/><path class="cls-1" d="M421.15,1309a12,12,0,0,0,5.2,3.78c4.58,1.8,7.4-.33,8.34-2.7,1.27-3.24-.07-5.67-3.75-9.25-4.43-4.33-6.09-8.12-4.24-12.83,2.05-5.22,7.43-7.75,14.51-5a16.27,16.27,0,0,1,7.05,5.16l-2.16,2.59a14.46,14.46,0,0,0-6.29-4.81c-4.4-1.73-7.93-.37-9.32,3.17-1.27,3.24-.28,5.92,3.32,9.33,4.24,3.8,6.47,8,4.69,12.55-2,5-7.47,7.09-13.47,4.74a14.38,14.38,0,0,1-6.13-4.2Z" transform="translate(-189.7 -596.35)"/><path class="cls-1" d="M391.75,1280.78c5.51-11.15,14.47-13.55,22-9.85,7.86,3.89,10.37,12.84,5.47,22.75-5.11,10.31-14.08,13.69-22,9.76C389,1299.43,387,1290.35,391.75,1280.78ZM415.52,1292c3.33-6.74,3.09-15-3.36-18.23s-13.13,1.42-16.71,8.66c-3.15,6.37-3.49,14.9,3.29,18.25C405.73,1304.11,412.18,1298.71,415.52,1292Z" transform="translate(-189.7 -596.35)"/><path class="cls-1" d="M379.51,1252.33l15.81,9.54-18.27,30.27-3.29-2,16.56-27.45-12.51-7.55Z" transform="translate(-189.7 -596.35)"/><path class="cls-1" d="M340.47,1264.18l8.55,6,18.43-26.24,3.15,2.22-18.43,26.24,8.5,6-1.86,2.66-20.2-14.19Z" transform="translate(-189.7 -596.35)"/><path class="cls-1" d="M334.49,1263.51l-3-2.38,21.82-27.83,3,2.37Z" transform="translate(-189.7 -596.35)"/><path class="cls-1" d="M333.44,1216.5l13.93,12.12-23.2,26.68-2.9-2.52,21-24.2-11-9.59Z" transform="translate(-189.7 -596.35)"/><path class="cls-1" d="M297.6,1205.91c8.91-8.68,18.15-8,24-2,6.12,6.28,5.51,15.56-2.41,23.27-8.24,8-17.83,8.23-24,1.88S290,1213.35,297.6,1205.91Zm18.69,18.46c5.39-5.24,7.92-13.15,2.9-18.31s-12.86-3-18.64,2.61c-5.09,4.95-8.25,12.89-3,18.31C303,1232.56,310.9,1229.62,316.29,1224.37Z" transform="translate(-189.7 -596.35)"/><path class="cls-1" d="M300.48,1181.18l-28,21.59-10.88-14.11,2.57-2,8.53,11.06,10-7.68-7.85-10.18,2.54-2,7.85,10.18,12.93-10Z" transform="translate(-189.7 -596.35)"/><path class="cls-1" d="M272.68,1143.66a21.82,21.82,0,0,1,6.15,6.51c5,7.6,4.09,17-5.92,23.53-9.55,6.26-19.38,4.22-25.05-4.43a17.44,17.44,0,0,1-3.07-7.31l3.27-.93a15.46,15.46,0,0,0,2.46,6.38c4.41,6.71,11.91,8.34,20.06,3,7.76-5.09,9.59-12.28,5.06-19.19a17.54,17.54,0,0,0-5.1-5.14Z" transform="translate(-189.7 -596.35)"/><path class="cls-1" d="M221.78,1108.49a12,12,0,0,0,1,6.35c2,4.51,5.47,5,7.81,4,3.19-1.39,4-4,3.91-9.18-.06-6.2,1.46-10,6.1-12.05,5.15-2.24,10.74-.21,13.76,6.77a16.22,16.22,0,0,1,1.32,8.64l-3.36.29a14.49,14.49,0,0,0-1-7.85c-1.88-4.34-5.33-5.88-8.82-4.36-3.2,1.38-4.4,4-4.27,8.93.29,5.69-1.12,10.24-5.59,12.18-4.94,2.14-10.3-.29-12.86-6.21a14.39,14.39,0,0,1-1.35-7.31Z" transform="translate(-189.7 -596.35)"/><path class="cls-1" d="M221.08,1067.7c11.79-4,19.81.7,22.47,8.62,2.79,8.32-1.79,16.42-12.27,19.93-10.91,3.66-19.64-.32-22.45-8.73C206,1078.94,211,1071.1,221.08,1067.7Zm8.83,24.75c7.13-2.39,12.84-8.42,10.56-15.24s-10.28-8.3-17.93-5.74c-6.74,2.26-13,8-10.62,15.21C214.4,1094.07,222.78,1094.84,229.91,1092.45Z" transform="translate(-189.7 -596.35)"/><path class="cls-1" d="M232.63,1039l4.38,17.94-34.35,8.38-.91-3.74,31.15-7.6-3.47-14.2Z" transform="translate(-189.7 -596.35)"/><path class="cls-1" d="M196.71,1019.64l1.76,10.29,31.61-5.41.65,3.8-31.61,5.41,1.76,10.24-3.21.55-4.16-24.33Z" transform="translate(-189.7 -596.35)"/><path class="cls-1" d="M193,1014.92l-.45-3.82,35.11-4.13.45,3.82Z" transform="translate(-189.7 -596.35)"/><path class="cls-1" d="M225.61,981.07l1.21,18.43-35.28,2.33-.26-3.85,32-2.11-1-14.58Z" transform="translate(-189.7 -596.35)"/><path class="cls-1" d="M207.85,948.16c12.44.21,18.45,7.26,18.31,15.62C226,972.54,219,978.65,208,978.47c-11.51-.19-18.41-6.84-18.27-15.7C189.85,953.72,197.18,948,207.85,948.16Zm.09,26.27c7.51.12,14.91-3.65,15-10.85s-6.91-11.24-15-11.38c-7.09-.11-14.94,3.24-15.07,10.8C192.78,970.8,200.42,974.31,207.94,974.43Z" transform="translate(-189.7 -596.35)"/><path class="cls-1" d="M227.41,932.78l-35.06-4.62,2.33-17.66,3.22.42-1.83,13.85,12.47,1.64,1.68-12.74,3.18.42-1.68,12.74L227.91,929Z" transform="translate(-189.7 -596.35)"/><path class="cls-1" d="M234.4,886.61a21.68,21.68,0,0,1-.27,8.95c-1.88,8.9-9.16,14.86-20.87,12.39-11.17-2.36-16.65-10.77-14.52-20.9a17.55,17.55,0,0,1,3-7.33l3,1.67a15.3,15.3,0,0,0-2.79,6.24c-1.66,7.86,2.48,14.33,12,16.34,9.08,1.91,15.47-1.86,17.17-9.94a17.54,17.54,0,0,0,.06-7.25Z" transform="translate(-189.7 -596.35)"/><path class="cls-1" d="M223.51,825.71a12,12,0,0,0-3.81,5.17c-1.83,4.57.28,7.41,2.65,8.36,3.23,1.29,5.66,0,9.27-3.69,4.37-4.4,8.17-6,12.86-4.15,5.22,2.08,7.71,7.47,4.88,14.54a16.35,16.35,0,0,1-5.2,7l-2.58-2.18a14.5,14.5,0,0,0,4.85-6.26c1.76-4.4.42-7.93-3.11-9.34-3.23-1.29-5.92-.32-9.35,3.26-3.83,4.21-8.07,6.42-12.59,4.61-5-2-7-7.51-4.65-13.5a14.4,14.4,0,0,1,4.24-6.11Z" transform="translate(-189.7 -596.35)"/><path class="cls-1" d="M252,796.48c11.12,5.58,13.47,14.55,9.72,22-3.94,7.83-12.91,10.29-22.78,5.33-10.28-5.17-13.61-14.16-9.63-22.08C233.33,793.67,242.43,791.69,252,796.48Zm-11.33,23.7c6.72,3.37,15,3.18,18.25-3.25s-1.35-13.13-8.56-16.76c-6.35-3.19-14.88-3.57-18.27,3.18C228.55,810.32,233.91,816.81,240.63,820.18Z" transform="translate(-189.7 -596.35)"/><path class="cls-1" d="M280.47,784.45l-9.64,15.76-30.16-18.46,2-3.29L270,795.2l7.63-12.47Z" transform="translate(-189.7 -596.35)"/><path class="cls-1" d="M268.88,745.31l-6.05,8.51L289,772.42l-2.23,3.14L260.59,757l-6,8.47-2.64-1.88,14.32-20.12Z" transform="translate(-189.7 -596.35)"/><path class="cls-1" d="M269.6,739.35l2.4-3,27.68,22-2.39,3Z" transform="translate(-189.7 -596.35)"/><path class="cls-1" d="M316.6,738.59l-12.2,13.86-26.54-23.37,2.54-2.89,24.07,21.19,9.66-11Z" transform="translate(-189.7 -596.35)"/><path class="cls-1" d="M327.42,702.83c8.62,9,7.84,18.2,1.83,24-6.33,6.08-15.6,5.4-23.25-2.56-8-8.29-8.12-17.87-1.73-24S320,695.14,327.42,702.83ZM308.84,721.4c5.21,5.42,13.1,8,18.29,3s3.1-12.83-2.49-18.65c-4.92-5.12-12.83-8.32-18.29-3.08C300.74,708.08,303.63,716,308.84,721.4Z" transform="translate(-189.7 -596.35)"/><path class="cls-1" d="M352.13,705.86l-21.42-28.14,14.18-10.8,2,2.59L335.74,678l7.62,10,10.23-7.79,1.94,2.55-10.23,7.79,9.9,13Z" transform="translate(-189.7 -596.35)"/><path class="cls-1" d="M389.8,678.3a21.82,21.82,0,0,1-6.55,6.11c-7.63,5-17,4-23.49-6.07-6.2-9.58-4.1-19.4,4.59-25a17.58,17.58,0,0,1,7.32-3l.91,3.28a15.4,15.4,0,0,0-6.39,2.42c-6.74,4.36-8.41,11.86-3.12,20,5,7.79,12.23,9.67,19.16,5.18a17.54,17.54,0,0,0,5.18-5.07Z" transform="translate(-189.7 -596.35)"/></svg>