<svg xmlns="http://www.w3.org/2000/svg" width="62.257" height="62.257" viewBox="0 0 62.257 62.257">
  <g id="result-point-after" transform="translate(-238.7 -589.6)">
    <path id="パス_854" data-name="パス 854" d="M346.087,610.434l.177-.658a1.5,1.5,0,0,0,1.059-.032c.353-.177.481-.417.369-.658-.128-.257-.369-.241-.738-.225l-.546.016a1.124,1.124,0,0,1-1.14-.594,1.178,1.178,0,0,1,.722-1.557,1.625,1.625,0,0,1,1.284-.064l-.144.594a1.16,1.16,0,0,0-.867.064c-.3.144-.433.369-.321.594.112.241.4.225.754.193l.546-.016a1.057,1.057,0,0,1,1.14.61,1.234,1.234,0,0,1-.77,1.637A2.1,2.1,0,0,1,346.087,610.434Z" transform="translate(-89.379 -14.238)" fill="#00aeef"/>
    <path id="パス_855" data-name="パス 855" d="M365.579,600.715a1.729,1.729,0,0,1,1.011-2.391,1.707,1.707,0,0,1,2.215,1.332,1.717,1.717,0,1,1-3.226,1.059Zm2.5-.819c-.257-.77-.738-1.123-1.284-.963-.53.177-.722.754-.481,1.525.257.77.754,1.156,1.284.979C368.147,601.277,368.324,600.667,368.083,599.9Z" transform="translate(-106.4 -7.247)" fill="#00aeef"/>
    <path id="パス_856" data-name="パス 856" d="M389.6,593.744l.754-.144.594,3.114,1.525-.289.112.626-2.263.433Z" transform="translate(-126.681 -3.358)" fill="#00aeef"/>
    <path id="パス_857" data-name="パス 857" d="M409.007,590.4l-1.059.08-.048-.642,2.9-.241.048.642-1.075.08.257,3.162-.754.064Z" transform="translate(-142.044)" fill="#00aeef"/>
    <path id="パス_858" data-name="パス 858" d="M431.064,589.8l.754.016-.064,3.8L431,593.6Z" transform="translate(-161.436 -0.168)" fill="#00aeef"/>
    <path id="パス_859" data-name="パス 859" d="M441.621,590l.754.064-.273,3.162,1.541.128L443.6,594l-2.3-.209Z" transform="translate(-170.083 -0.336)" fill="#00aeef"/>
    <path id="パス_860" data-name="パス 860" d="M459.963,595.034a1.715,1.715,0,1,1,3.322.706,1.719,1.719,0,1,1-3.322-.706Zm2.568.546c.177-.8-.08-1.348-.626-1.477s-1.011.289-1.172,1.075c-.177.787.08,1.38.626,1.493C461.9,596.8,462.37,596.366,462.531,595.579Z" transform="translate(-185.697 -3.219)" fill="#00aeef"/>
    <path id="パス_861" data-name="パス 861" d="M490.4,600.9l2.183.867-.241.594-1.477-.578-.369.915,1.252.5-.241.594-1.252-.5-.562,1.428-.69-.273Z" transform="translate(-210.128 -9.486)" fill="#00aeef"/>
    <path id="パス_862" data-name="パス 862" d="M508.657,612.979a1.786,1.786,0,0,1,2.488-.915,1.519,1.519,0,0,1,.754.947l-.578.241a.993.993,0,0,0-.465-.61c-.514-.273-1.123-.032-1.509.674-.385.722-.273,1.348.257,1.637a.971.971,0,0,0,.867.032l.128.61a1.5,1.5,0,0,1-1.332-.08A1.733,1.733,0,0,1,508.657,612.979Z" transform="translate(-226.382 -18.676)" fill="#00aeef"/>
    <path id="パス_863" data-name="パス 863" d="M530,629.042l.658-.16a1.487,1.487,0,0,0,.514.915c.321.241.578.225.754.016.177-.225.032-.433-.144-.754l-.273-.481a1.107,1.107,0,0,1,0-1.284,1.188,1.188,0,0,1,1.717-.08,1.736,1.736,0,0,1,.658,1.107l-.594.144a1.23,1.23,0,0,0-.449-.738c-.273-.209-.53-.209-.674-.016-.161.225-.016.449.176.754l.273.465a1.037,1.037,0,0,1-.016,1.284,1.24,1.24,0,0,1-1.814.08A1.854,1.854,0,0,1,530,629.042Z" transform="translate(-244.547 -31.305)" fill="#00aeef"/>
    <path id="パス_864" data-name="パス 864" d="M548.571,642.32a1.714,1.714,0,1,1,2.424,2.375,1.717,1.717,0,1,1-2.424-2.375Zm1.878,1.846c.578-.578.658-1.188.257-1.573-.4-.4-1-.3-1.573.289-.562.578-.674,1.2-.273,1.605C549.261,644.856,549.887,644.743,550.449,644.166Z" transform="translate(-259.571 -43.668)" fill="#00aeef"/>
    <path id="パス_865" data-name="パス 865" d="M564.369,657.7l.481.594-2.472,1.974.963,1.2-.5.4-1.444-1.8Z" transform="translate(-270.908 -57.17)" fill="#00aeef"/>
    <path id="パス_866" data-name="パス 866" d="M577.58,673.536l-.578-.9.546-.337,1.557,2.456-.546.337-.578-.915-2.68,1.7-.4-.642Z" transform="translate(-282.241 -69.427)" fill="#00aeef"/>
    <path id="パス_867" data-name="パス 867" d="M585.786,692.4l.353.674-3.387,1.749-.353-.674Z" transform="translate(-288.537 -86.301)" fill="#00aeef"/>
    <path id="パス_868" data-name="パス 868" d="M590.515,703.2l.289.706-2.921,1.22.594,1.428-.594.241L587,704.661Z" transform="translate(-292.399 -95.367)" fill="#00aeef"/>
    <path id="パス_869" data-name="パス 869" d="M597,723.939a1.717,1.717,0,1,1,.915,3.274,1.721,1.721,0,1,1-.915-3.274Zm.706,2.52c.786-.225,1.156-.69,1.011-1.236s-.722-.754-1.509-.546c-.786.225-1.188.706-1.027,1.252S596.919,726.684,597.706,726.459Z" transform="translate(-299.509 -112.688)" fill="#00aeef"/>
    <path id="パス_870" data-name="パス 870" d="M604.84,756.5l.257,2.327-.626.064-.161-1.573-.979.112.144,1.348-.626.064L602.7,757.5l-1.525.16-.08-.754Z" transform="translate(-304.236 -140.113)" fill="#00aeef"/>
    <path id="パス_871" data-name="パス 871" d="M603.906,775.9a1.8,1.8,0,0,1,1.958,1.8,1.484,1.484,0,0,1-.514,1.107l-.482-.4a1.054,1.054,0,0,0,.337-.706c.016-.578-.482-1.011-1.3-1.027-.835-.016-1.332.369-1.348.963a1.048,1.048,0,0,0,.369.786l-.482.385a1.583,1.583,0,0,1-.546-1.22A1.781,1.781,0,0,1,603.906,775.9Z" transform="translate(-304.907 -156.398)" fill="#00aeef"/>
    <path id="パス_872" data-name="パス 872" d="M600.368,803.3l.449.514a1.585,1.585,0,0,0-.578.883c-.064.385.064.626.337.674s.4-.16.594-.481l.289-.465a1.107,1.107,0,0,1,1.14-.594,1.184,1.184,0,0,1,.867,1.476,1.645,1.645,0,0,1-.674,1.091l-.4-.465a1.178,1.178,0,0,0,.433-.738c.048-.337-.064-.562-.3-.61-.273-.048-.4.209-.594.5l-.289.449a1.065,1.065,0,0,1-1.14.594,1.257,1.257,0,0,1-.915-1.573A2.135,2.135,0,0,1,600.368,803.3Z" transform="translate(-302.942 -179.402)" fill="#00aeef"/>
    <path id="パス_873" data-name="パス 873" d="M596.886,824.972a1.711,1.711,0,1,1-.979,3.242,1.715,1.715,0,1,1,.979-3.242Zm-.738,2.52c.786.241,1.348.032,1.509-.514s-.209-1.027-.979-1.268-1.38-.032-1.541.5S595.361,827.267,596.148,827.492Z" transform="translate(-298.626 -197.495)" fill="#00aeef"/>
    <path id="パス_874" data-name="パス 874" d="M589.314,847.641l-.3.69-2.905-1.284-.626,1.412-.578-.257.931-2.1Z" transform="translate(-290.636 -215.332)" fill="#00aeef"/>
    <path id="パス_875" data-name="パス 875" d="M581.63,868.089l.53-.931.546.321L581.245,870l-.546-.321.546-.931-2.745-1.589.385-.658Z" transform="translate(-285.263 -232.458)" fill="#00aeef"/>
    <path id="パス_876" data-name="パス 876" d="M573.947,881.283l-.433.626-3.114-2.183.433-.626Z" transform="translate(-278.463 -243.036)" fill="#00aeef"/>
    <path id="パス_877" data-name="パス 877" d="M562.5,889.823l-.481.578-2.44-2.022-.995,1.188-.482-.4,1.477-1.766Z" transform="translate(-268.137 -250.004)" fill="#00aeef"/>
    <path id="パス_878" data-name="パス 878" d="M548.362,904.886a1.7,1.7,0,0,1,.1,2.584,1.72,1.72,0,0,1-2.584-.257,1.725,1.725,0,1,1,2.488-2.327Zm-1.91,1.8c.562.594,1.156.706,1.573.321s.337-1-.225-1.589-1.172-.722-1.589-.337C545.81,905.463,545.89,906.089,546.452,906.683Z" transform="translate(-257.323 -264.055)" fill="#00aeef"/>
    <path id="パス_879" data-name="パス 879" d="M529.9,924.362l-1.942,1.3-.353-.53,1.316-.883-.546-.818-1.123.754-.353-.53,1.123-.754-.851-1.284.626-.417Z" transform="translate(-241.945 -278.379)" fill="#00aeef"/>
    <path id="パス_880" data-name="パス 880" d="M506.49,935.006a1.816,1.816,0,0,1-.658,2.584,1.564,1.564,0,0,1-1.22.08l.128-.61a.928.928,0,0,0,.77-.048c.514-.257.674-.9.289-1.621-.385-.738-.963-1-1.493-.722a1.043,1.043,0,0,0-.53.69l-.578-.241a1.564,1.564,0,0,1,.819-1.059A1.789,1.789,0,0,1,506.49,935.006Z" transform="translate(-222.048 -289.008)" fill="#00aeef"/>
    <path id="パス_881" data-name="パス 881" d="M481.772,944.188l-.257.642a1.41,1.41,0,0,0-1.043-.1c-.369.128-.53.353-.433.61.1.273.337.273.706.3l.546.048a1.125,1.125,0,0,1,1.059.722,1.193,1.193,0,0,1-.9,1.461,1.626,1.626,0,0,1-1.284-.1l.209-.578a1.24,1.24,0,0,0,.867.048c.321-.112.465-.3.385-.546-.08-.257-.369-.273-.722-.289l-.546-.048a1.037,1.037,0,0,1-1.043-.738,1.228,1.228,0,0,1,.963-1.525A1.93,1.93,0,0,1,481.772,944.188Z" transform="translate(-201.953 -297.515)" fill="#00aeef"/>
    <path id="パス_882" data-name="パス 882" d="M459.743,951.38a1.717,1.717,0,1,1-3.338.642,1.721,1.721,0,1,1,3.338-.642Zm-2.584.5c.161.8.594,1.22,1.156,1.107s.819-.658.658-1.46-.61-1.236-1.156-1.124S457.014,951.091,457.159,951.878Z" transform="translate(-182.716 -302.316)" fill="#00aeef"/>
    <path id="パス_883" data-name="パス 883" d="M438.668,956.488l-.754.048-.225-3.146-1.541.112-.048-.642,2.3-.161Z" transform="translate(-165.718 -304.823)" fill="#00aeef"/>
    <path id="パス_884" data-name="パス 884" d="M417.278,956.578l1.059.048-.032.642-2.905-.112.032-.642,1.075.048.128-3.162.754.032Z" transform="translate(-148.34 -305.411)" fill="#00aeef"/>
    <path id="パス_885" data-name="パス 885" d="M406.154,955.668l-.754-.1.481-3.772.754.1Z" transform="translate(-139.945 -304.068)" fill="#00aeef"/>
    <path id="パス_886" data-name="パス 886" d="M389.889,952.305l-.738-.16.658-3.1-1.509-.321.128-.626,2.263.482Z" transform="translate(-125.59 -300.962)" fill="#00aeef"/>
    <path id="パス_887" data-name="パス 887" d="M365.314,945.673a1.718,1.718,0,1,1-.947-2.424A1.723,1.723,0,0,1,365.314,945.673Zm-2.472-.851c-.273.77-.08,1.348.449,1.541s1.027-.16,1.3-.931.1-1.38-.433-1.557C363.613,943.683,363.1,944.052,362.843,944.822Z" transform="translate(-103.471 -296.801)" fill="#00aeef"/>
    <path id="パス_888" data-name="パス 888" d="M334.854,937.408l-2.054-1.124.3-.562,1.4.754.482-.867-1.188-.642.3-.562,1.188.642.738-1.348.674.369Z" transform="translate(-78.997 -288.873)" fill="#00aeef"/>
    <path id="パス_889" data-name="パス 889" d="M318.51,922.268a1.8,1.8,0,0,1-2.584.61,1.492,1.492,0,0,1-.626-1.043l.594-.16a1,1,0,0,0,.385.658c.465.337,1.107.177,1.573-.5.482-.674.449-1.316-.048-1.653a1.017,1.017,0,0,0-.851-.144l-.064-.61a1.545,1.545,0,0,1,1.316.241A1.728,1.728,0,0,1,318.51,922.268Z" transform="translate(-64.306 -276.847)" fill="#00aeef"/>
    <path id="パス_890" data-name="パス 890" d="M297.732,904.285l-.674.08a1.5,1.5,0,0,0-.4-.979c-.289-.273-.546-.3-.738-.112-.193.209-.1.433.048.77l.209.514a1.109,1.109,0,0,1-.161,1.268,1.166,1.166,0,0,1-1.7-.128,1.643,1.643,0,0,1-.514-1.172l.61-.08a1.227,1.227,0,0,0,.353.786c.241.225.5.273.674.1.193-.193.064-.449-.08-.77l-.209-.5a1.046,1.046,0,0,1,.177-1.268,1.228,1.228,0,0,1,1.8.144A1.924,1.924,0,0,1,297.732,904.285Z" transform="translate(-46.257 -262.652)" fill="#00aeef"/>
    <path id="パス_891" data-name="パス 891" d="M281.475,888.614a1.718,1.718,0,1,1-2.119-2.664,1.745,1.745,0,0,1,2.616.08A1.763,1.763,0,0,1,281.475,888.614Zm-1.637-2.054c-.642.514-.786,1.091-.433,1.541.353.433.963.417,1.589-.1s.819-1.107.465-1.557S280.464,886.046,279.838,886.559Z" transform="translate(-33.418 -248.329)" fill="#00aeef"/>
    <path id="パス_892" data-name="パス 892" d="M268.7,869.664l-.4-.642,2.7-1.669-.819-1.316.546-.337,1.22,1.974Z" transform="translate(-24.849 -231.787)" fill="#00aeef"/>
    <path id="パス_893" data-name="パス 893" d="M254.864,856.054l.465.963-.578.273-1.252-2.632.578-.273.465.979L257.4,854l.321.69Z" transform="translate(-12.425 -221.965)" fill="#00aeef"/>
    <path id="パス_894" data-name="パス 894" d="M250.257,842.522l-.257-.706,3.563-1.316.257.706Z" transform="translate(-9.486 -210.631)" fill="#00aeef"/>
    <path id="パス_895" data-name="パス 895" d="M246.509,824.658l-.209-.738,3.049-.851-.417-1.493.61-.177.626,2.215Z" transform="translate(-6.38 -194.597)" fill="#00aeef"/>
    <path id="パス_896" data-name="パス 896" d="M242.574,803.2a1.717,1.717,0,0,1-2.183-1.4c-.144-.995.465-1.781,1.685-1.974a1.724,1.724,0,1,1,.5,3.37Zm-.385-2.584c-.8.112-1.236.546-1.156,1.107s.626.835,1.428.722,1.268-.546,1.172-1.107S242.991,800.49,242.188,800.618Z" transform="translate(-1.402 -176.463)" fill="#00aeef"/>
    <path id="パス_897" data-name="パス 897" d="M238.7,774.743l.032-2.343.642.016-.032,1.589,1,.016.016-1.348.642.016-.016,1.348,1.541.032-.016.754Z" transform="translate(0 -153.461)" fill="#00aeef"/>
    <path id="パス_898" data-name="パス 898" d="M241.882,752.949a1.821,1.821,0,0,1-1.749-2.006,1.537,1.537,0,0,1,.626-1.043l.433.449a.985.985,0,0,0-.4.658c-.08.578.353,1.059,1.172,1.172s1.364-.225,1.444-.819a1.06,1.06,0,0,0-.273-.835l.514-.337a1.528,1.528,0,0,1,.4,1.268A1.756,1.756,0,0,1,241.882,752.949Z" transform="translate(-1.192 -134.572)" fill="#00aeef"/>
    <path id="パス_899" data-name="パス 899" d="M248.814,725.27l-.385-.562a1.484,1.484,0,0,0,.674-.8c.112-.385.016-.626-.241-.706-.273-.08-.417.112-.658.4l-.353.433a1.1,1.1,0,0,1-1.2.45,1.2,1.2,0,0,1-.69-1.573,1.741,1.741,0,0,1,.8-1.011l.353.5a1.266,1.266,0,0,0-.53.69c-.1.321-.016.562.225.642.257.08.433-.144.642-.433l.337-.417a1.065,1.065,0,0,1,1.2-.449,1.233,1.233,0,0,1,.706,1.669A1.905,1.905,0,0,1,248.814,725.27Z" transform="translate(-6.037 -111.066)" fill="#00aeef"/>
    <path id="パス_900" data-name="パス 900" d="M254.988,702.531a1.716,1.716,0,1,1,1.364-3.114,1.721,1.721,0,1,1-1.364,3.114Zm1.059-2.391c-.754-.321-1.332-.193-1.573.321-.225.514.08,1.043.819,1.364s1.364.209,1.589-.3C257.122,701.006,256.785,700.461,256.047,700.14Z" transform="translate(-12.612 -92.002)" fill="#00aeef"/>
    <path id="パス_901" data-name="パス 901" d="M262.7,686.458l.385-.658,2.728,1.621.786-1.332.546.321-1.188,1.974Z" transform="translate(-20.148 -80.76)" fill="#00aeef"/>
    <path id="パス_902" data-name="パス 902" d="M273.556,661.362l-.642.851-.514-.385,1.749-2.327.514.385-.658.867,2.536,1.91-.465.61Z" transform="translate(-28.291 -58.681)" fill="#00aeef"/>
    <path id="パス_903" data-name="パス 903" d="M287,652.662l.514-.562,2.825,2.552-.514.562Z" transform="translate(-40.548 -52.469)" fill="#00aeef"/>
    <path id="パス_904" data-name="パス 904" d="M295.1,644.114l.546-.514,2.167,2.311,1.124-1.059.433.465-1.685,1.573Z" transform="translate(-47.348 -45.333)" fill="#00aeef"/>
    <path id="パス_905" data-name="パス 905" d="M313.884,627.7a1.717,1.717,0,1,1,2.745-2.006,1.722,1.722,0,1,1-2.745,2.006ZM316,626.146c-.482-.658-1.059-.835-1.525-.5s-.449.947.032,1.6,1.075.867,1.525.53S316.484,626.8,316,626.146Z" transform="translate(-62.713 -29.532)" fill="#00aeef"/>
  </g>
</svg>
