<svg xmlns="http://www.w3.org/2000/svg" width="184.106" height="315.3" viewBox="0 0 184.106 315.3">
  <g id="woman-img" transform="translate(0.023 0.004)">
    <path id="パス_906" data-name="パス 906" d="M569.4,1531.957a23.477,23.477,0,1,1,17.048,28.487,23.477,23.477,0,0,1-17.048-28.487Z" transform="translate(-431.572 -1245.861)" fill="#fff"/>
    <path id="パス_907" data-name="パス 907" d="M624.54,1561.039h.253l-.247.287h0a29.926,29.926,0,0,1-8.3,6.464l-.063.034h-.069a78.31,78.31,0,0,1-8.958-2.706l-.1-.046v-.109h0s-.977-8.147-.936-10.135v-.092l.069-.057h0c1.689-1.3,7.274-6.056,8.211-6.791l.069-.058h.092l1.092.264h0a41.962,41.962,0,0,1,7.826,2.654l.086.04v.092h0s1.367,6.895.971,10.147Zm-1.149-8.906c-.092-.529-.161-.914-.2-1.08h0a42.136,42.136,0,0,0-7.659-2.574h0c-.488-.127-.839-.207-.994-.241h0c-1.092.873-6.32,5.321-8.044,6.682h0c0,1.005.218,3.447.448,5.671h0c.207,1.971.419,3.763.471,4.212h0a80.413,80.413,0,0,0,8.734,2.631h0c.109-.057.362-.189.724-.4h0a29.244,29.244,0,0,0,7.257-5.786v-.063h0a26.481,26.481,0,0,0-.293-6.245h0c-.149-1.086-.31-2.08-.437-2.8Zm-16.9,2.689Z" transform="translate(-447.495 -1260.172)" fill="#fff"/>
    <path id="パス_908" data-name="パス 908" d="M607.408,1518.792l.1.144-.132.109h0s-.96.833-2.074,1.9h0a21.514,21.514,0,0,0-2.959,3.333l-.08.132-.144-.052h0a8.624,8.624,0,0,0-1.609-.063h0a40.628,40.628,0,0,0-8.619,1.034l-.121.04-.086-.1h0a26.366,26.366,0,0,0-2.632-2.6h0c-.994-.879-1.839-1.58-1.839-1.58l-.138-.115.1-.144h0a20.691,20.691,0,0,1,5.619-5.349v-.121l.149-.046h0a23.31,23.31,0,0,1,11.216-.73v.374h0l-.839.052h-.178a13.637,13.637,0,0,1,4.338,3.769Zm-.155.109-.155.115Zm-4.826-3.8-.351-.2.374-.149h.075a22.888,22.888,0,0,0-9.377.9v.063l-.1.057h0a17.156,17.156,0,0,0-4.022,3.327h0c-.494.574-.9,1.04-1.149,1.4h0c-.144.184-.247.327-.322.425h0a45.607,45.607,0,0,1,4.309,4.022h0a32.569,32.569,0,0,1,5.711-.856h0c1.075-.092,2.091-.143,2.907-.155h0a10.146,10.146,0,0,1,1.614.052h0a33.272,33.272,0,0,1,4.907-5.091h0a13.987,13.987,0,0,0-4.6-3.769Z" transform="translate(-439.396 -1245.871)" fill="#fff"/>
    <path id="パス_909" data-name="パス 909" d="M595.38,1565.9v.126l-.109.063h0c-.69.4-2.3,1.454-3.832,2.425h0c-.764.488-1.5.96-2.086,1.321h0a10.754,10.754,0,0,1-1.189.684h-.115c-3.717-1.074-8.7-5.217-8.7-5.223l-.046-.034v-.052h0a41.4,41.4,0,0,1-1.488-9.957v-.1l.092-.057h0l7.234-4.861.109-.075.1.075h0s1.724,1.149,3.717,2.413h0a40.014,40.014,0,0,0,5.263,2.988l.132.046v.138h0c0,.948.213,3.482.448,5.746h0c.241,2.3.483,4.315.483,4.321Zm-.391-.08c-.121-1.006-.925-7.843-.919-9.877h0a43.191,43.191,0,0,1-5.217-2.976h0c-1.724-1.074-3.212-2.074-3.614-2.35h0l-3.131,2.1h0l-3.919,2.632h0a7.916,7.916,0,0,0,.04.833h0a39.163,39.163,0,0,0,1.414,8.854h0c.1.086.385.31.793.626h0c1.551,1.2,5,3.677,7.671,4.47h0c.161-.08.575-.316,1.069-.626h0C590.859,1568.466,593.841,1566.512,594.99,1565.823Z" transform="translate(-435.452 -1261.163)" fill="#fff"/>
    <path id="パス_910" data-name="パス 910" d="M630.96,1534.41v.092l-.057.069h0c-.638.822-1.546,2.034-2.4,3.126h0a17.45,17.45,0,0,1-2.143,2.43l-.1.069-.1-.052h0a40.394,40.394,0,0,0-7.745-2.62h0c-.666-.172-1.086-.264-1.086-.264h-.109l-.029-.109.178-.052-.178.052h0c-.138-.46-.856-2.413-1.724-4.447h0a29.412,29.412,0,0,0-2.5-5.039l-.075-.1.063-.115h0c1.253-2.005,5.108-5.309,5.108-5.321l.057-.046h.075a7.532,7.532,0,0,1,1.534.27h0a29.928,29.928,0,0,1,7.165,3.062h.04v.04h0a31.134,31.134,0,0,1,3.959,8.964Zm-.575-.735a30.451,30.451,0,0,0-3.648-7.975h0a29.887,29.887,0,0,0-7.033-3h0a9.874,9.874,0,0,0-1.1-.219h0l-.27-.035h0c-.224.2-1.063.937-2.017,1.85h0a22.194,22.194,0,0,0-2.873,3.223h0a31.592,31.592,0,0,1,2.465,5.016h0c.8,1.924,1.482,3.752,1.678,4.384h0l.988.236h0a42.789,42.789,0,0,1,7.717,2.6h0a20.612,20.612,0,0,0,1.977-2.3h0c.833-1.057,1.724-2.229,2.35-3.045h0c-.034-.126-.1-.385-.207-.741Z" transform="translate(-450.376 -1249.217)" fill="#fff"/>
    <path id="パス_911" data-name="パス 911" d="M584.917,1529.835l.069.08-.04.1h0c-.574,1.609-1.362,3.976-1.931,6.257h0a23.433,23.433,0,0,0-.667,3.654v.092l-.075.052h0l-3.235,2.172h0l-4.022,2.689-.1.063-.1-.046h0a4.706,4.706,0,0,1-.9-.712h0a32.71,32.71,0,0,1-3.315-3.695l-.035-.046v-.069h0a30.365,30.365,0,0,1,.891-6.194h0a25.408,25.408,0,0,1,1-3.12v-.04h0c1.333-1.287,4.832-4.551,7.7-5.476l.1-.035.081.069h0a45.156,45.156,0,0,1,4.527,4.235Zm-2.764,10.072h0Zm-.167-12.434c-.81-.712-1.523-1.316-1.758-1.517h0c-2.689.908-6.108,4.022-7.418,5.332h0a24.608,24.608,0,0,0-.965,3.034h0a31.787,31.787,0,0,0-.758,4.3h0c-.092.925-.115,1.551-.121,1.724h0a29.676,29.676,0,0,0,2.023,2.373h0c.419.443.844.874,1.2,1.207h0a5.493,5.493,0,0,0,.718.575h0l7.067-4.746h0a23.808,23.808,0,0,1,.667-3.631h0c.575-2.247,1.35-4.6,1.913-6.182h0a29.277,29.277,0,0,0-2.568-2.517Z" transform="translate(-432.372 -1250.697)" fill="#fff"/>
    <path id="パス_912" data-name="パス 912" d="M569.829,1545.661a17.3,17.3,0,0,0-.339,5.3l-.379.052h0a23.4,23.4,0,0,1,.293-10.118h0a23.516,23.516,0,0,1,2.212-5.614h0l.069-.075.316.213h0a23.088,23.088,0,0,0-.983,3.068h0a31.762,31.762,0,0,0-.758,4.3h0c-.109,1.115-.126,1.81-.126,1.81v.035h0a8.741,8.741,0,0,0-.322,1.04Zm.144-1.109Zm-.868,3.218a14.355,14.355,0,0,1,.35-2.2h0a10.625,10.625,0,0,1,.328-1.051h0a30.715,30.715,0,0,1,.891-6.165h0c.04-.167.086-.328.132-.494h0a22.7,22.7,0,0,0-1.028,3.131h0a23.034,23.034,0,0,0-.672,6.78Z" transform="translate(-431.574 -1254.803)" fill="#fff"/>
    <path id="パス_913" data-name="パス 913" d="M636.995,1524.736a23.557,23.557,0,0,1,7.515,15.686l-.356.109h0c-.207-.333-.862-1.391-1.563-2.459h0a20.839,20.839,0,0,0-1.839-2.511l-.04-.04v-.052h0s-.075-.3-.23-.828h0a30.345,30.345,0,0,0-3.672-8.044l-.034-.04v-.058h.19l.155-.1-.155.1h-.19c-.034-.718-.069-1.293-.092-1.643l-.034-.477.356.328Zm7.067,14.939a23.16,23.16,0,0,0-6.981-14.312h0c0,.3.04.684.063,1.109h0a31.241,31.241,0,0,1,3.913,8.871h0a21.165,21.165,0,0,1,1.85,2.54h0c.437.655.85,1.31,1.149,1.793Z" transform="translate(-460.484 -1250.196)" fill="#fff"/>
    <path id="パス_914" data-name="パス 914" d="M597.89,1514.9a23.477,23.477,0,0,1,17.047,28.476h0a23.477,23.477,0,0,1-28.487,17.048h0A23.477,23.477,0,0,1,569.4,1531.94h0a23.477,23.477,0,0,1,28.487-17.048Zm-17.576,2.953a22.983,22.983,0,0,0-10.538,14.186h0a22.983,22.983,0,0,0,2.58,17.484h0a22.985,22.985,0,0,0,14.192,10.538h0a22.982,22.982,0,0,0,17.478-2.58h0a23.029,23.029,0,0,0,10.543-14.186h0a23.029,23.029,0,0,0-2.586-17.484h0a22.984,22.984,0,0,0-14.186-10.538h0A22.983,22.983,0,0,0,580.313,1517.857Z" transform="translate(-431.572 -1245.856)" fill="#fff"/>
    <path id="パス_915" data-name="パス 915" d="M590.6,1585.682l.247.178-.27.144h0c-.155.08-.793.425-1.247.7l-.063.04h-.081l-.333-.08h0a23.407,23.407,0,0,1-14.267-10.463l-.247-.4.442.109h0a10.923,10.923,0,0,0,3.189,0h.092l.063.052h0s.31.258.833.661h0c1.563,1.206,5.056,3.717,7.734,4.487h.069l.04.057h0s.126.207.356.534h0a19.793,19.793,0,0,0,3.448,4.022Zm-.46.121a23.728,23.728,0,0,1-3.625-4.4h0c-3.448-1.028-7.964-4.654-8.567-5.171h0a10.736,10.736,0,0,1-2.833.052h0a22.983,22.983,0,0,0,13.836,9.975h0l.247.063h0c.316-.19.689-.4.942-.534Z" transform="translate(-433.976 -1272.071)" fill="#fff"/>
    <path id="パス_916" data-name="パス 916" d="M613.776,1592.069l.575.15-.529.213h0a23.385,23.385,0,0,1-13.933.982l-.448-.109.4-.241h0c.465-.287,1.1-.626,1.264-.707l.109-.063.057.046h0c2.137.121,6.814.109,9.693-.781v-.057h.138c.351.063,1.81.328,2.6.523h.075Zm-.707.224c-.73-.155-1.655-.322-1.982-.385h0c-2.982.931-7.705.931-9.877.81h0c-.149.075-.465.247-.787.425h0a22.949,22.949,0,0,0,12.641-.85Z" transform="translate(-444.654 -1278.75)" fill="#fff"/>
    <path id="パス_917" data-name="パス 917" d="M635.165,1569.876l.414-.167-.167.413h0a23.46,23.46,0,0,1-13.215,13.049h-.184c-.764-.189-2.229-.454-2.574-.517l-.259-.052.126-.23h0a22.049,22.049,0,0,0,2.137-5.039h0c.034-.138.069-.27.1-.408v-.086l.086-.04h0s.293-.149.787-.437h0a29.239,29.239,0,0,0,7.389-5.935l.063-.075h.126a15.725,15.725,0,0,0,5.171-.471Zm-.264.483a17.422,17.422,0,0,1-4.849.374h0a30.012,30.012,0,0,1-8.153,6.355h0a1.366,1.366,0,0,1-.081.328h0a21.787,21.787,0,0,1-2.051,4.9h0c.575.1,1.683.316,2.339.477h0a23.086,23.086,0,0,0,12.784-12.434Z" transform="translate(-453.052 -1269.48)" fill="#fff"/>
    <path id="パス_918" data-name="パス 918" d="M597.325,1529.456a29.633,29.633,0,0,0-2.545-5.125l-.034-.04h-.115a8.668,8.668,0,0,0-1.724-.069c-.816,0-1.833.063-2.907.155a30.648,30.648,0,0,0-5.838.9h-.092v.086c-.575,1.615-1.367,4.022-1.948,6.286a24.622,24.622,0,0,0-.678,3.723v.109l.092.063s1.724,1.149,3.723,2.419a41.05,41.05,0,0,0,5.338,3.028l.1.034.08-.063c1.724-1.316,7.291-6.068,8.211-6.8l.1-.075-.04-.127C598.894,1533.443,598.182,1531.507,597.325,1529.456Zm-21.259,20.622a39.115,39.115,0,0,1-1.431-8.912c-.035-.574-.04-.931-.04-.936v-.115l-.109-.052a4.368,4.368,0,0,1-.81-.649c-.356-.333-.781-.764-1.2-1.207a28.077,28.077,0,0,1-2.057-2.425l-.207-.293-.132.333a9.924,9.924,0,0,0-.339,1.086,17.609,17.609,0,0,0-.345,5.424h0a23.5,23.5,0,0,0,3.074,7.906l.04.063h.086a11.528,11.528,0,0,0,3.31,0l.218-.034ZM588.3,1560.1h.057c2.16.132,6.964.132,9.969-.816h.075l.034-.069a22.487,22.487,0,0,0,2.178-5.131c.034-.138.069-.276.1-.419l.034-.172-.172-.052a79.051,79.051,0,0,1-8.9-2.689l-.092-.04-.08.046c-1.063.62-4.183,2.672-5.924,3.752a11.52,11.52,0,0,1-1.149.65l-.224.08.132.2a22.6,22.6,0,0,0,3.9,4.648Zm20.179-12.87-.1.126h.471a15.728,15.728,0,0,0,5.252-.506h.08v-.074a23.8,23.8,0,0,0,1.011-3.1,23.458,23.458,0,0,0,.661-7.3v-.092c-.213-.339-.868-1.4-1.574-2.465a20.081,20.081,0,0,0-1.89-2.58l-.149-.149-.132.172c-.644.822-1.546,2.028-2.407,3.12a16.759,16.759,0,0,1-2.068,2.356l-.1.075v.115s.086.448.213,1.149.287,1.724.437,2.8a26.141,26.141,0,0,1,.287,6.245Zm-.247-24.58.3.167v-.345c-.034-.724-.069-1.3-.092-1.649v-.074l-.052-.052a23.342,23.342,0,0,0-10.193-5.5c-.534-.138-1.069-.247-1.6-.339h-.04a5.177,5.177,0,0,0-.85.052,3.37,3.37,0,0,0-.77.132l-.373.15.351.2a13.743,13.743,0,0,1,4.671,3.913l.057.081h.178l.27.034a8.948,8.948,0,0,1,1.1.219,29.88,29.88,0,0,1,7.021,3.022Zm-27.9-1.9c.276-.356.678-.844,1.149-1.4a17.154,17.154,0,0,1,4.022-3.327l.1-.057v-.454l-.224.069a23.511,23.511,0,0,0-13.457,11.043l.293.23.075-.075h0c1.3-1.281,4.821-4.522,7.544-5.39h.063l.034-.052a4.753,4.753,0,0,1,.385-.592Z" transform="translate(-431.841 -1246.141)" fill="#fff"/>
    <path id="パス_919" data-name="パス 919" d="M376.716,1050.867c3.246-2.3,7.941-4.188,11.313-3.574,4.539.827,7.016,1.816,9.325,4.458s3.545,3.792,3.792,8.165.908,6.843.575,9.239-.144,3.545.092,7.5a16.813,16.813,0,0,1-2.4,9.98c-1.563,2.39-1.563,3.959-2.39,4.206l-.822.247a27.869,27.869,0,0,0-.086,3.051c.086.908,1.488.908,3.712,1.074s14.106-.574,17,.828,3.545,2.557,9.153,12.29,6.682,12.537,9.733,16.163a62.209,62.209,0,0,0,5.941,6.516c1.4,1.235,1.563,3.448,1.977,6.027s1.074,10.061-2.718,9.647-10.808-6.682-11.8-8.745-10.233-15.094-10.314-15.669.575,7.5-.328,11.8-1.816,5.935-2.063,11.049,1.235,13.79,2.224,20.788,2.971,14.272,2.873,16.168-.414,10.308-.333,13.031,1.074,12.951.167,21.943-2.637,22.408-4.022,25.9-3.051,9.406-4.292,12.066c0,0,1.569,6.021.575,16.168a95.341,95.341,0,0,0,0,21.035c.494,4.453,1.724,8.165,1.482,15.835s.741,14.364,1.724,16.829a30.713,30.713,0,0,0,4.453,7.671c1.976,2.471,1.482-2.724,5.441,7.423s5.447,10.917,7.671,12.371,4.212,1.724,3.712,4.953-4.206,3.706-13.606,3.448-13.37-4.206-14.112-6.929-.735-3.212-2.965-2.965-4.7-1.241-6.435-4.706.247-3.959.494-7.176,1.982-6.429,2.723-8.165,1.724-3.712,2.229-1.976a23.956,23.956,0,0,0-1.488-6.682c-1.488-4.453-7.918-20.541-9.153-31.676s-.494-17.07-.494-17.07-3.447-1.241-8.912.247-10.888-.747-15.835-.247-13.365.988-16.582,3.712-1.724,2.718-1.724,2.718-.437.247-.345,4.453-1.385,2.724-1.885,8.17.994,10.641,0,12.641-10.888,3.218-13.112-5.171-1.241-11.876-1.488-15.341-2.224-6.929-3.959-10.394-2.471-12.871,1.241-13.612,10.641-.247,12.37.988.988,1.241,2.971,1.488a26.707,26.707,0,0,0,12.124-1.488c5.447-1.976,9.653-4.947,16.088-5.441s14.106.741,14.364-1.488-.523-6.677-3.6-11.876-13.215-26.724-14.939-37.118-1.724-16.329.747-22.764,3.218-8.906,3.218-11.382,2.6-6.809.862-13.979a95.147,95.147,0,0,0-5.441-15.594c-1.609-3.959-.621-2.1-2.971-7.918s-3.447-9.153-4.6-9.4-2.718,1.6-7.8,7.176-5.82,8.377-5.82,8.377.747,2.6,4.212,9.153,6.062,10.273,7.3,10.888,3.838-1.724,5.568-2.35a9.158,9.158,0,0,1,6.32.373c1.494.868,2.356,3.338,1.241,3.712,0,0,.862,2.6-.994,3.218a1.756,1.756,0,0,1-.741,2.718s1.115,3.344-1.362,3.591c0,0,.126,2.724-4.453,2.477s-3.585-1.362-5.568-2.873-10.394-9.526-13.365-14.6-9.647-11.491-9.647-14.847,4.206-9.526,5.073-13.112,3.338-7.676,5.171-10.394,5.568-11.135,8.291-13.215,8.412-2.971,11.629-3.712,6.556-3.712,6.188-4.459a23.419,23.419,0,0,1-2.6-5.568s-2.356.62.247,4.6c0,0-3.712-2.1-4.085-13.215s-1.724-14.364,1.235-16.209a18.359,18.359,0,0,0,.253-3.166,25.793,25.793,0,0,1,.77-3.792,14.078,14.078,0,0,1,5.746-8.44Z" transform="translate(-330.03 -1047.18)" fill="#fff"/>
  </g>
</svg>
